<svg width="320" height="110" viewBox="0 0 320 110" fill="none" xmlns="http://www.w3.org/2000/svg" role="img" aria-label="FasterCapital logo">
  <defs>
    <linearGradient id="gearBlue" x1="44" y1="10" x2="44" y2="90" gradientUnits="userSpaceOnUse">
      <stop offset="0%" stop-color="#00a6ff"/>
      <stop offset="100%" stop-color="#0072c6"/>
    </linearGradient>
    <linearGradient id="dotsGradient" x1="0" y1="0" x2="0" y2="30" gradientUnits="userSpaceOnUse">
      <stop offset="0%" stop-color="#ff3f21"/>
      <stop offset="100%" stop-color="#ffb200"/>
    </linearGradient>
  </defs>
  <g>
    <circle cx="50" cy="55" r="40" fill="url(#gearBlue)" />
    <circle cx="50" cy="55" r="24" fill="white" />
    <circle cx="50" cy="55" r="14" fill="#1d8ef7" opacity="0.65" />
    <g fill="#0c74d1">
      <rect x="40" y="9" width="15" height="30" rx="7" transform="translate(12 17) rotate(-25)" />
      <rect x="40" y="9" width="15" height="30" rx="7" transform="translate(12 17) rotate(25)" opacity="0.8" />
      <rect x="40" y="9" width="15" height="30" rx="7" transform="translate(12 17) rotate(55)" opacity="0.7" />
      <rect x="40" y="9" width="15" height="30" rx="7" transform="translate(12 17) rotate(-55)" opacity="0.7" />
    </g>
    <g fill="url(#dotsGradient)">
      <circle cx="18" cy="55" r="6" />
      <circle cx="26" cy="55" r="6" opacity="0.65" />
      <circle cx="34" cy="55" r="6" opacity="0.45" />
      <circle cx="42" cy="55" r="6" opacity="0.25" />
    </g>
  </g>
  <text x="100" y="70" font-family="'Helvetica Neue', 'Segoe UI', sans-serif" font-size="48" font-weight="500" fill="#db1d25">Faster</text>
  <text x="210" y="70" font-family="'Helvetica Neue', 'Segoe UI', sans-serif" font-size="48" font-weight="500" fill="#0b7cc8">Capital</text>
</svg>
