<svg width="340" height="84" viewBox="0 0 340 84" fill="none" xmlns="http://www.w3.org/2000/svg" role="img" aria-label="FasterCapital logo">
  <defs>
    <linearGradient id="redGradient" x1="120" y1="0" x2="120" y2="80" gradientUnits="userSpaceOnUse">
      <stop offset="0%" stop-color="#ff3d3d"/>
      <stop offset="100%" stop-color="#ff7a00"/>
    </linearGradient>
    <linearGradient id="blueGradient" x1="40" y1="4" x2="40" y2="84" gradientUnits="userSpaceOnUse">
      <stop offset="0%" stop-color="#1b6def"/>
      <stop offset="100%" stop-color="#0b4fb7"/>
    </linearGradient>
  </defs>
  <g>
    <circle cx="40" cy="42" r="32" fill="url(#blueGradient)"/>
    <circle cx="40" cy="42" r="16" fill="white"/>
    <circle cx="40" cy="42" r="10" fill="#0b4fb7" opacity="0.4"/>
    <g fill="#0b4fb7">
      <rect x="14" y="-4" width="12" height="18" rx="60" transform="translate(-16 44) rotate(-10)"/>
      <rect x="14" y="-4" width="12" height="18" rx="60" transform="translate(-16 44) rotate(10)" opacity="0.8"/>
      <rect x="14" y="-4" width="12" height="18" rx="60" transform="translate(-16 44) rotate(25)" opacity="0.7"/>
      <rect x="14" y="-4" width="12" height="18" rx="60" transform="translate(-16 44) rotate(-25)" opacity="0.7"/>
    </g>
    <g opacity="0.9" fill="url(#redGradient)">
      <circle cx="16" cy="40" r="3"/>
      <circle cx="22" cy="41" r="3" opacity="0.65"/>
      <circle cx="28" cy="42" r="3" opacity="0.4"/>
      <circle cx="34" cy="43" r="3" opacity="0.25"/>
    </g>
  </g>
  <text x="95" y="52" font-family="'Montserrat', 'Helvetica Neue', sans-serif" font-size="36" font-weight="600" fill="#db1d25">Faster</text>
  <text x="205" y="52" font-family="'Montserrat', 'Helvetica Neue', sans-serif" font-size="36" font-weight="600" fill="#0d6fb4">Capital</text>
</svg>
